<svg width="141" height="36" viewBox="0 0 141 36" fill="none" xmlns="http://www.w3.org/2000/svg">
<g clip-path="url(#clip0_266_576)">
<path fill-rule="evenodd" clip-rule="evenodd" d="M75.996 26.3678C77.1928 26.3678 78.2051 27.1361 78.5897 28.2029H73.4022C73.7868 27.1361 74.7983 26.3678 75.996 26.3678ZM81.943 29.1354C81.943 25.8559 79.2755 23.1875 75.996 23.1875C72.7165 23.1875 70.0481 25.8559 70.0481 29.1354C70.0481 32.4149 72.7165 35.0824 75.996 35.0824C77.8206 35.0824 79.4537 34.2544 80.546 32.9576L78.0928 30.9196C77.5852 31.5149 76.838 31.9021 75.996 31.9021C74.8633 31.9021 73.8913 31.2173 73.4637 30.2418H81.8332L81.8464 30.1733C81.907 29.8361 81.943 29.4901 81.943 29.1354ZM27.8649 31.9021H23.1199C21.5947 31.9021 20.3531 30.6597 20.3531 29.1345C20.3531 27.6085 21.5947 26.3669 23.1199 26.3669H27.8649V23.1875H23.1199C19.8404 23.1875 17.1729 25.855 17.1729 29.1345C17.1729 32.414 19.8404 35.0824 23.1199 35.0824H27.8649V31.9021ZM93.881 31.9021H89.1351C87.609 31.9021 86.3675 30.6597 86.3675 29.1345C86.3675 27.6085 87.609 26.3669 89.1351 26.3669H93.8801V23.1875H89.1351C85.8556 23.1875 83.1872 25.855 83.1872 29.1345C83.1872 32.414 85.8556 35.0824 89.1351 35.0824H93.8801L93.881 31.9021ZM35.3678 26.3678C33.8417 26.3678 32.6002 27.6085 32.6002 29.1345C32.6002 30.6606 33.8417 31.9021 35.3669 31.9021C36.8929 31.9021 38.1345 30.6606 38.1345 29.1345C38.1345 27.6085 36.8938 26.3678 35.3678 26.3678ZM35.3669 35.0824C32.0874 35.0824 29.4199 32.4149 29.4199 29.1345C29.4199 25.8559 32.0874 23.1875 35.3669 23.1875C38.6464 23.1875 41.3148 25.8559 41.3148 29.1345C41.3148 32.4149 38.6464 35.0824 35.3669 35.0824ZM48.6491 23.2068C45.367 23.2068 42.7021 25.8779 42.7021 29.1539V35.0824H45.8824V29.1539C45.8824 27.6278 47.1222 26.3871 48.6491 26.3871C50.1761 26.3871 51.4159 27.6278 51.4159 29.1539V35.0824H54.5962V29.1539C54.5962 25.8787 51.9313 23.2068 48.6491 23.2068ZM62.5346 23.2068C59.2595 23.2068 56.5876 25.8779 56.5876 29.1539V35.0824H59.7679V29.1539C59.7679 27.6278 61.0147 26.3871 62.5346 26.3871C64.0624 26.3871 65.3022 27.6278 65.3022 29.1539V35.0824H68.4825V29.1539C68.4825 25.8787 65.8176 23.2068 62.5346 23.2068ZM106.2 23.1682V26.3485H102.409V35.0816H99.2283V26.3485H95.4369V23.1682H106.2Z" fill="#191919"/>
<mask id="mask0_266_576" style="mask-type:luminance" maskUnits="userSpaceOnUse" x="0" y="0" width="141" height="20">
<path d="M0 0.56283H140.18V19.6692H0V0.56283Z" fill="white"/>
</mask>
<g mask="url(#mask0_266_576)">
<path fill-rule="evenodd" clip-rule="evenodd" d="M130.626 19.6692H9.55229C4.27785 19.6692 0 15.3913 0 10.116C0 4.83893 4.27785 0.56283 9.55317 0.56283H130.627C135.904 0.56283 140.18 4.83893 140.18 10.116C140.18 15.3913 135.904 19.6692 130.627 19.6692" fill="#FFE907"/>
</g>
<path fill-rule="evenodd" clip-rule="evenodd" d="M27.8645 12.96H23.1195C21.5943 12.96 20.3527 11.7176 20.3527 10.1924C20.3527 8.66634 21.5943 7.42566 23.1195 7.42566H27.8645V4.24449H23.1195C19.84 4.24449 17.1725 6.91376 17.1725 10.1924C17.1725 13.4719 19.84 16.1394 23.1195 16.1394H27.8645V12.96ZM35.3674 7.42566C33.8413 7.42566 32.5998 8.66634 32.5998 10.1915C32.5998 11.7176 33.8413 12.96 35.3665 12.96C36.8926 12.96 38.1341 11.7176 38.1341 10.1924C38.1341 8.66634 36.8926 7.42654 35.3665 7.42654M35.3665 16.1403C32.087 16.1403 29.4195 13.4728 29.4195 10.1924C29.4195 6.91288 32.087 4.24537 35.3665 4.24537C38.646 4.24537 41.3144 6.91288 41.3144 10.1924C41.3144 13.4728 38.646 16.1403 35.3665 16.1403ZM57.3634 4.24537C55.6389 4.24537 54.0935 4.98907 53.0056 6.15951C51.9186 4.98907 50.3724 4.24537 48.6488 4.24537C45.3666 4.24537 42.7017 6.91639 42.7017 10.1924V16.2158H45.882V10.1924C45.882 8.66634 47.1218 7.42566 48.6479 7.42566C50.1757 7.42566 51.4155 8.66634 51.4155 10.1924V16.2158H54.5958V10.1924C54.5958 8.66634 55.8365 7.42566 57.3634 7.42566C58.8894 7.42566 60.1301 8.66634 60.1301 10.1924V16.2158H63.3104V10.1924C63.3104 6.91727 60.6455 4.24537 57.3634 4.24537ZM80.1988 4.24537C78.4752 4.24537 76.9289 4.98907 75.841 6.15951C74.754 4.98907 73.2078 4.24537 71.4842 4.24537C68.202 4.24537 65.5371 6.91639 65.5371 10.1924V16.2158H68.7166V10.1924C68.7166 8.66634 69.9572 7.42566 71.4842 7.42566C73.0111 7.42566 74.2509 8.66634 74.2509 10.1924V16.2158H77.4321V10.1924C77.4321 8.66634 78.6719 7.42566 80.1979 7.42566C81.7257 7.42566 82.9655 8.66634 82.9655 10.1924V16.2158H86.1458V10.1924C86.1458 6.91727 83.4809 4.24537 80.1988 4.24537ZM111.252 5.65112L108.988 7.91473C108.542 7.61005 108.001 7.42566 107.423 7.42566C105.897 7.42566 104.656 8.66634 104.656 10.1924V16.2158H101.476V10.1924C101.476 6.91727 104.141 4.24537 107.423 4.24537C108.879 4.24537 110.215 4.7801 111.252 5.65112ZM121.614 12.96H116.869C115.344 12.96 114.102 11.7176 114.102 10.1924C114.102 8.66634 115.344 7.42566 116.869 7.42566H121.614V4.24449H116.869C113.589 4.24449 110.921 6.91376 110.921 10.1924C110.921 13.4719 113.59 16.1394 116.869 16.1394H121.614V12.96ZM93.9113 7.42566C95.1089 7.42566 96.1205 8.19395 96.5059 9.26078H91.3184C91.703 8.19395 92.7145 7.42566 93.9113 7.42566ZM99.8592 10.1933C99.8592 6.91288 97.1908 4.24537 93.9113 4.24537C90.6318 4.24537 87.9643 6.91288 87.9643 10.1933C87.9643 13.4728 90.6318 16.1403 93.9113 16.1403C95.7359 16.1403 97.3699 15.3123 98.4622 14.0154L96.0089 11.9775C95.5006 12.5728 94.7542 12.96 93.9113 12.96C92.7795 12.96 91.8075 12.2751 91.379 11.2996H99.7494L99.7617 11.2311C99.8232 10.894 99.8592 10.548 99.8592 10.1933ZM128.865 7.42566C130.061 7.42566 131.074 8.19395 131.458 9.26078H126.271C126.655 8.19395 127.667 7.42566 128.865 7.42566ZM134.812 10.1933C134.812 6.91288 132.144 4.24537 128.865 4.24537C125.585 4.24537 122.917 6.91288 122.917 10.1933C122.917 13.4728 125.585 16.1403 128.865 16.1403C130.689 16.1403 132.322 15.3123 133.415 14.0154L130.961 11.9775C130.454 12.5728 129.707 12.96 128.865 12.96C127.732 12.96 126.76 12.2751 126.331 11.2996H134.702L134.715 11.2311C134.775 10.894 134.812 10.548 134.812 10.1933ZM10.5414 8.55746C11.5837 8.55746 12.4635 9.22566 12.798 10.1538H8.28485C8.61938 9.22566 9.49919 8.55746 10.5414 8.55746ZM15.7167 10.9651C15.7167 8.11141 13.3951 5.78985 10.5414 5.78985C7.68777 5.78985 5.36621 8.11141 5.36621 10.9651C5.36621 13.8187 7.68777 16.1394 10.5414 16.1394C12.1289 16.1394 13.5505 15.4194 14.5006 14.2911L12.3669 12.5175C11.9244 13.0364 11.2746 13.3727 10.5414 13.3727C9.55626 13.3727 8.70982 12.7774 8.33753 11.9283H15.6201L15.6324 11.8695C15.6842 11.5753 15.7167 11.2741 15.7167 10.9651Z" fill="#191919"/>
</g>
<defs>
<clipPath id="clip0_266_576">
<rect width="140.488" height="36" fill="white"/>
</clipPath>
</defs>
</svg>
